# AST/ASF file generated using VICON BodyLanguage
# -----------------------------------------------
:version 1.10
:name VICON
:units
  mass 1.0
  length 0.45
  angle deg
:documentation
   .ast/.asf automatically generated from VICON data using
   VICON BodyBuilder and BodyLanguage model FoxedUp or BRILLIANT.MOD
:root
   order TX TY TZ RX RY RZ
   axis XYZ
   position 0 0 0  
   orientation 0 0 0 
:bonedata
  begin
     id 1 
     name lhipjoint
     direction 0.521452 -0.77106 0.36545 
     length 2.0933 
     axis 0 0 0  XYZ
  end
  begin
     id 2 
     name lfemur
     direction 0.34202 -0.939693 0  
     length 6.83441  
     axis 0 0 20  XYZ
    dof rx ry rz
    limits (-160.0 20.0)
           (-70.0 70.0)
           (-60.0 70.0)
  end
  begin
     id 3 
     name ltibia
     direction 0.34202 -0.939693 0   
     length 7.28749   
     axis 0 0 20   XYZ
    dof rx
    limits (-10.0 170.0)
  end
  begin
     id 4 
     name lfoot
     direction 0.100608 -0.276418 0.955757   
     length 1.52195   
     axis -90 7.62852e-016 20   XYZ
    dof rx rz
    limits (-45.0 90.0)
           (-70.0 20.0)
  end
  begin
     id 5 
     name ltoes
     direction 1.53558e-011 -4.21907e-011 1   
     length 0.770459   
     axis -90 7.62852e-016 20   XYZ
    dof rx
    limits (-90.0 20.0)
  end
  begin
     id 6 
     name rhipjoint
     direction -0.488071 -0.788702 0.373812   
     length 2.04648  
     axis 0 0 0  XYZ 
  end
  begin
     id 7 
     name rfemur
     direction -0.34202 -0.939693 0   
     length 6.92583   
     axis 0 0 -20   XYZ
    dof rx ry rz
    limits (-160.0 20.0)
           (-70.0 70.0)
           (-70.0 60.0)
  end
  begin
     id 8 
     name rtibia
     direction -0.34202 -0.939693 0   
     length 7.41043   
     axis 0 0 -20   XYZ
    dof rx
    limits (-10.0 170.0)
 end
 begin
     id 9 
     name rfoot
     direction -0.0784433 -0.215521 0.973343   
     length 1.67708  
     axis -90 -7.62852e-016 -20   XYZ
    dof rx rz
    limits (-45.0 90.0)
           (-20.0 70.0)
  end
  begin
     id 10 
     name rtoes
     direction -1.53551e-011 -4.21842e-011 1   
     length 0.849787   
     axis -90 -7.62852e-016 -20   XYZ
    dof rx
    limits (-90.0 20.0)
  end
  begin
     id 11 
     name lowerback
     direction -0.0122332 0.997575 -0.0685192   
     length 1.98724   
     axis 0 0 0   XYZ
    dof rx ry rz
    limits (-20.0 45.0)
           (-30.0 30.0)
           (-30.0 30.0)
  end
  begin
     id 12 
     name upperback
     direction 0.0182347 0.999724 -0.0148421   
     length 1.99029   
     axis 0 0 0   XYZ
    dof rx ry rz
    limits (-20.0 45.0)
           (-30.0 30.0)
           (-30.0 30.0)
  end
  begin
     id 13 
     name thorax
     direction 0.0242908 0.99956 0.0170184   
     length 1.99573   
     axis 0 0 0   XYZ
    dof rx ry rz
    limits (-20.0 45.0)
           (-30.0 30.0)
           (-30.0 30.0)
  end
  begin
     id 14 
     name lowerneck
     direction 0.0654488 0.985533 0.156338   
     length 1.4285   
     axis 0 0 0   XYZ
    dof rx ry rz
    limits (-20.0 45.0)
           (-30.0 30.0)
           (-30.0 30.0)
  end
  begin
     id 15 
     name upperneck
     direction -0.02953 0.998556 -0.0448842   
     length 1.44709   
     axis 0 0 0   XYZ
    dof rx ry rz
    limits (-20.0 45.0)
           (-30.0 30.0)
           (-30.0 30.0)
  end
  begin
     id 16
     name head
     direction -0.0155588 0.999386 -0.0314063  
     length 1.44689  
     axis 0 0 0   XYZ
    dof rx ry rz
    limits (-20.0 45.0)
           (-30.0 30.0)
           (-30.0 30.0)
  end
  begin
     id 17 
     name lclavicle
     direction 0.968229 0.236071 -0.0824755  
     length 3.60593  
     axis 0 0 0   XYZ
    dof ry rz
    limits (-20.0 10.0)
           (0.0 20.0)
  end
  begin
     id 18 
     name lhumerus
     direction 1 -4.48968e-011 7.8138e-029   
     length 5.06035   
     axis 180 -30 -90   XYZ
    dof rx ry rz
    limits (-60.0 90.0)
           (-90.0 90.0)
           (-90.0 90.0)
  end
  begin
     id 19
     name lradius
     direction 1 -4.48967e-011 9.02887e-028   
     length 3.1478   
     axis 180 -30 -90   XYZ
    dof rx
    limits (-10.0 170.0)
  end
  begin
     id 20
     name lwrist
     direction 1 -4.48961e-011 7.20928e-028   
     length 1.5739   
     axis -5.52449e-016 90 90   XYZ
    dof ry
    limits (-180.0 0.0)
 end
  begin
     id 21 
     name lhand
     direction 1 -4.48972e-011 1.44186e-027   
     length 0.606747   
     axis -9.20027e-016 90 90   XYZ
    dof rx rz
    limits (-90.0 90.0)
           (-45.0 45.0)
  end
  begin
     id 22 
     name lfingers
     direction 1 -4.48943e-011 2.88371e-027   
     length 0.489175   
     axis -1.84005e-015 90 90   XYZ
    dof rx
    limits (0.0 90.0)
  end
  begin
     id 23
     name lthumb
     direction 0.707107 -6.34917e-011 0.707107   
     length 0.70236   
     axis -90 45 2.85299e-015   XYZ
    dof rx rz
    limits (-45.0 45.0)
           (-45.0 45.0)
  end
  begin
     id 24 
     name rclavicle
     direction -0.978165 0.207816 0.0022268   
     length 3.35425  
     axis 0 0 0   XYZ 
    dof ry rz
    limits (-10.0 20.0)
           (-20.0 0.0)
  end
  begin
     id 25 
     name rhumerus
     direction -1 -4.48964e-011 -4.02159e-027  
     length 5.12273   
     axis 180 30 90   XYZ
    dof rx ry rz
    limits (-90.0 60.0)
           (-90.0 90.0)
           (-90.0 90.0)
  end
  begin
     id 26 
     name rradius
     direction -1 -4.48966e-011 1.62746e-027   
     length 3.422   
     axis 180 30 90   XYZ
    dof rx
    limits (-10.0 170.0)
  end
  begin
     id 27 
     name rwrist
     direction -1 -4.4896e-011 7.20928e-028   
     length 1.711   
     axis -5.52449e-016 -90 -90   XYZ
    dof ry
    limits (-180.0 0.0)
  end
  begin
     id 28
     name rhand
     direction -1 -4.48979e-011 1.44186e-027   
     length 0.704599   
     axis -9.20027e-016 -90 -90   XYZ
    dof rx rz
    limits (-90.0 90.0)
           (-45.0 45.0)
  end
  begin
     id 29
     name rfingers
     direction -1 -4.48962e-011 2.88371e-027   
     length 0.568066   
     axis -1.84005e-015 -90 -90   XYZ
    dof rx
    limits (0.0 90.0)
  end
  begin
     id 30
     name rthumb
     direction -0.707107 -6.34949e-011 0.707107   
     length 0.815633   
     axis -90 -45 -2.85299e-015   XYZ
    dof rx rz
    limits (-45.0 45.0)
           (-45.0 45.0)
  end
:hierarchy
  begin
    root lhipjoint rhipjoint lowerback
    lhipjoint lfemur
    lfemur ltibia
    ltibia lfoot
    lfoot ltoes
    rhipjoint rfemur
    rfemur rtibia
    rtibia rfoot
    rfoot rtoes
    lowerback upperback
    upperback thorax
    thorax lowerneck lclavicle rclavicle
    lowerneck upperneck
    upperneck head
    lclavicle lhumerus
    lhumerus lradius
    lradius lwrist
    lwrist lhand lthumb
    lhand lfingers
    rclavicle rhumerus
    rhumerus rradius
    rradius rwrist
    rwrist rhand rthumb
    rhand rfingers
  end

#!OML:ASF Z:\Project 1\Capture day 1\Session 1\Male1.ASF
:FULLY-SPECIFIED
:DEGREES
375
root 13.1029 16.4049 -4.01905 -170.815 -24.0819 179.91
lowerback -7.51891 -1.7849 -0.00885753
upperback -0.75468 -2.39444 -1.00445
thorax 3.38976 -1.2071 -1.28006
lowerneck -1.56918 -7.96483 -6.33493
upperneck 0.0194699 -10.5323 2.8428
head 0.777617 -5.26409 1.78235
rclavicle 2.11209e-015 1.15295e-014
rhumerus 80.4475 -8.14618 -95.6668
rradius 13.943
rwrist 75.181
rhand -46.0634 73.0974
rfingers 7.12502
rthumb -18.8067 43.9866
lclavicle 2.11209e-015 1.15295e-014
lhumerus -21.0081 13.0742 83.1016
lradius 8.64296
lwrist -18.4576
lhand -14.1885 48.7718
lfingers 7.12502
lthumb 11.9474 78.4109
rfemur -9.62067 -8.36166 27.4727
rtibia 17.0855
rfoot -12.7444 -19.2866
rtoes 7.8606
lfemur 9.8116 -5.84234 -6.51859
ltibia 17.0575
lfoot 15.1145 14.9186
ltoes 54.0138
376
root 13.1025 16.405 -4.01629 -170.805 -24.1361 179.923
lowerback -7.52604 -1.79785 0.000613279
upperback -0.730869 -2.41193 -0.974028
thorax 3.41897 -1.215 -1.25657
lowerneck -1.3386 -7.978 -6.4864
upperneck -0.128685 -10.5623 2.943
head 0.70821 -5.27888 1.85218
rclavicle -1.73937e-014 -1.59028e-015
rhumerus 80.5974 -8.14685 -95.871
rradius 13.8413
rwrist 75.1795
rhand -46.1269 73.5623
rfingers 7.12502
rthumb -18.8678 44.4574
lclavicle -1.73937e-014 -1.59028e-015
lhumerus -20.9273 13.0452 83.216
lradius 8.59101
lwrist -18.3843
lhand -14.3731 48.5007
lfingers 7.12502
lthumb 11.7694 78.15
rfemur -9.64396 -8.38996 27.487
rtibia 17.1011
rfoot -12.8418 -19.2903
rtoes 8.66088
lfemur 9.78761 -5.84371 -6.48948
ltibia 17.0307
lfoot 15.1653 14.8444
ltoes 53.8171
377
root 13.099 16.407 -4.01151 -170.745 -24.2017 179.849
lowerback -7.53524 -1.78646 -0.114302
upperback -0.682277 -2.38699 -0.883712
thorax 3.48344 -1.20306 -1.09793
lowerneck -1.33154 -8.03579 -6.71382
upperneck -0.154976 -10.6376 2.93817
head 0.715344 -5.31722 1.88746
rclavicle 6.31141e-015 -5.56597e-015
rhumerus 80.5664 -8.08683 -94.5671
rradius 13.8984
rwrist 73.8208
rhand -46.041 73.5376
rfingers 7.12502
rthumb -18.7851 44.4247
lclavicle 6.31141e-015 -5.56597e-015
lhumerus -20.7437 12.9596 83.4876
lradius 8.54142
lwrist -18.3089
lhand -14.282 48.5195
lfingers 7.12502
lthumb 11.8572 78.1638
rfemur -9.68585 -8.61767 27.4019
rtibia 17.1153
rfoot -13.1768 -18.9998
rtoes 9.28281
lfemur 9.74148 -5.90011 -6.57411
ltibia 17.0144
lfoot 15.2597 14.8937
ltoes 53.7001
378
root 13.0956 16.4081 -4.00741 -170.69 -24.2842 179.786
lowerback -7.45387 -1.80353 -0.253151
upperback -0.678208 -2.40011 -0.795337
thorax 3.45142 -1.21153 -0.927349
lowerneck -1.519 -8.05562 -6.88224
upperneck 0.0371239 -10.6493 2.86121
head 0.813758 -5.32498 1.8779
rclavicle 3.57067e-014 1.19271e-015
rhumerus 80.7074 -8.06143 -94.4816
rradius 13.817
rwrist 73.7336
rhand -45.8344 73.4413
rfingers 7.12502
rthumb -18.5864 44.3093
lclavicle 3.57067e-014 1.19271e-015
lhumerus -20.6166 12.9071 83.6788
lradius 8.51215
lwrist -18.3044
lhand -14.2064 48.7732
lfingers 7.12502
lthumb 11.93 78.4133
rfemur -9.77505 -8.91521 27.359
rtibia 17.1516
rfoot -13.2005 -18.8884
rtoes 8.6986
lfemur 9.69394 -5.83363 -6.60769
ltibia 16.9717
lfoot 15.4331 14.7656
ltoes 53.6078
379
root 13.0964 16.4091 -4.0049 -170.668 -24.3535 179.793
lowerback -7.40991 -1.78697 -0.231989
upperback -0.648452 -2.37765 -0.837075
thorax 3.45529 -1.19942 -0.979016
lowerneck -1.67126 -8.10545 -6.98453
upperneck 0.185988 -10.7037 2.98868
head 0.904247 -5.35189 1.92357
rclavicle -4.33351e-014 1.15295e-014
rhumerus 80.972 -8.22768 -95.124
rradius 13.6395
rwrist 74.2739
rhand -45.5342 73.3862
rfingers 7.12502
rthumb -18.2976 44.2268
lclavicle -4.33351e-014 1.15295e-014
lhumerus -20.4691 12.7006 83.6843
lradius 8.54376
lwrist -18.2744
lhand -14.2164 48.7967
lfingers 7.12502
lthumb 11.9205 78.4373
rfemur -9.85094 -8.91162 27.3885
rtibia 17.2064
rfoot -13.1582 -19.0351
rtoes 8.77299
lfemur 9.65115 -5.62927 -6.51756
ltibia 16.9063
lfoot 15.6559 14.4725
ltoes 53.5388
380
root 13.0978 16.4099 -4.00338 -170.638 -24.3721 179.761
lowerback -7.47281 -1.76353 -0.166579
upperback -0.574636 -2.34652 -0.938229
thorax 3.56047 -1.18145 -1.12097
lowerneck -1.61577 -8.16493 -7.00907
upperneck 0.081446 -10.787 3.15633
head 0.878218 -5.39172 1.98333
rclavicle -5.0541e-014 7.95139e-015
rhumerus 80.9866 -8.30676 -94.5113
rradius 13.6385
rwrist 73.5427
rhand -45.2432 72.8937
rfingers 7.12502
rthumb -18.0176 43.7083
lclavicle -5.0541e-014 7.95139e-015
lhumerus -20.3545 12.4886 83.5797
lradius 8.74431
lwrist -18.2044
lhand -13.8121 48.6369
lfingers 7.12502
lthumb 12.3102 78.2545
rfemur -9.86846 -8.74638 27.347
rtibia 17.2542
rfoot -13.2285 -19.1257
rtoes 9.18167
lfemur 9.64495 -5.64202 -6.5385
ltibia 16.8526
lfoot 15.6037 14.5549
ltoes 53.596
381
root 13.097 16.4097 -4.00356 -170.598 -24.3473 179.699
lowerback -7.5335 -1.77804 -0.185708
upperback -0.536539 -2.36212 -0.969013
thorax 3.63311 -1.18874 -1.14686
lowerneck -1.58974 -8.17084 -6.84579
upperneck 0.0191325 -10.7993 3.04241
head 0.837189 -5.39801 1.92196
rclavicle 1.36416e-014 -3.18055e-015
rhumerus 80.9972 -8.22217 -94.2107
rradius 13.6464
rwrist 73.2078
rhand -44.9572 72.3397
rfingers 7.12502
rthumb -17.7424 43.1292
lclavicle 1.36416e-014 -3.18055e-015
lhumerus -20.3535 12.4376 83.5041
lradius 9.00284
lwrist -18.1415
lhand -13.276 48.5052
lfingers 7.12502
lthumb 12.8272 78.0911
rfemur -9.86746 -8.7264 27.2523
rtibia 17.2777
rfoot -13.5258 -18.9546
rtoes 10.4993
lfemur 9.67931 -5.84394 -6.68388
ltibia 16.8217
lfoot 15.4527 14.7511
ltoes 53.3038
382
root 13.0969 16.409 -4.00294 -170.609 -24.3173 179.744
lowerback -7.50549 -1.78369 -0.176591
upperback -0.540558 -2.37126 -0.935406
thorax 3.61417 -1.1932 -1.11705
lowerneck -1.75912 -8.18218 -6.6284
upperneck 0.184089 -10.8062 2.85196
head 0.89321 -5.40267 1.81355
rclavicle -2.90723e-014 -7.95139e-016
rhumerus 81.0486 -8.16922 -94.1963
rradius 13.5734
rwrist 73.1505
rhand -44.7452 72.1658
rfingers 7.12502
rthumb -17.5385 42.9369
lclavicle -2.90723e-014 -7.95139e-016
lhumerus -20.3767 12.3985 83.438
lradius 9.1813
lwrist -18.1272
lhand -13.2393 48.3745
lfingers 7.12502
lthumb 12.8625 77.9582
rfemur -9.87631 -8.81784 27.2765
rtibia 17.2856
rfoot -13.8286 -18.719
rtoes 11.8406
lfemur 9.70948 -5.86721 -6.68362
ltibia 16.8019
lfoot 15.4569 14.7447
ltoes 53.1158
383
root 13.0984 16.409 -4.0008 -170.612 -24.3176 179.787
lowerback -7.48113 -1.77181 -0.145965
upperback -0.538221 -2.35803 -0.924886
thorax 3.60239 -1.18606 -1.12109
lowerneck -1.9273 -8.2313 -6.54317
upperneck 0.352555 -10.8619 2.77653
head 0.968003 -5.43128 1.76226
rclavicle 8.57259e-015 2.34566e-014
rhumerus 80.8527 -8.11394 -92.6122
rradius 13.6021
rwrist 71.4788
rhand -44.5874 72.0445
rfingers 7.12502
rthumb -17.3866 42.8021
lclavicle 8.57259e-015 2.34566e-014
lhumerus -20.3358 12.2851 83.4077
lradius 9.24914
lwrist -18.1962
lhand -13.47 48.1959
lfingers 7.12502
lthumb 12.6401 77.7934
rfemur -9.9188 -8.82003 27.3274
rtibia 17.3017
rfoot -13.8067 -18.767
rtoes 11.7241
lfemur 9.70449 -5.8279 -6.63658
ltibia 16.7817
lfoot 15.3223 14.8352
ltoes 53.5192
